<?xml version="1.0" standalone="no"?>
<!DOCTYPE svg PUBLIC "-//W3C//DTD SVG 20010904//EN"
 "http://www.w3.org/TR/2001/REC-SVG-20010904/DTD/svg10.dtd">
<svg version="1.0" xmlns="http://www.w3.org/2000/svg"
 width="700.000000pt" height="700.000000pt" viewBox="0 0 700.000000 700.000000"
 preserveAspectRatio="xMidYMid meet">
<metadata>
Created by potrace 1.14, written by Peter Selinger 2001-2017
</metadata>
<g transform="translate(0.000000,700.000000) scale(0.100000,-0.100000)"
fill="#000000" stroke="none">
<path d="M1452 5678 c-16 -20 -87 -167 -115 -238 -32 -82 -82 -255 -98 -340
-29 -160 -34 -217 -34 -400 0 -221 15 -354 60 -530 38 -148 106 -342 155 -440
l28 -55 -50 -75 c-117 -179 -188 -317 -203 -397 -2 -15 -7 -39 -10 -53 -3 -14
-9 -47 -12 -75 -3 -27 -10 -53 -16 -57 -5 -3 -35 -10 -66 -14 -31 -4 -58 -8
-61 -9 -5 -1 -85 -13 -130 -20 -14 -2 -47 -6 -74 -10 -27 -3 -52 -8 -55 -9 -3
-2 -31 -7 -61 -10 -87 -11 -94 -12 -98 -24 -2 -7 9 -71 24 -143 l28 -131 50 6
c58 6 92 11 226 31 151 24 233 35 236 32 3 -2 28 -123 38 -178 4 -24 -11 -34
-225 -163 l-229 -137 34 -62 c18 -34 48 -89 66 -122 17 -33 34 -63 36 -67 3
-4 52 22 109 57 58 36 152 94 209 129 l104 65 53 -92 c77 -136 150 -230 268
-347 180 -177 366 -296 666 -425 98 -42 410 -131 520 -148 17 -3 59 -10 95
-16 36 -5 88 -13 115 -16 28 -3 68 -7 90 -10 194 -22 534 -22 750 -1 57 6 143
17 163 21 11 2 42 7 69 10 26 4 64 11 83 15 19 5 51 12 70 15 48 8 211 52 295
80 502 166 872 454 1089 847 l37 67 102 -63 c259 -160 317 -194 321 -188 7 12
63 115 99 184 l35 68 -76 46 c-43 26 -90 55 -107 64 -31 17 -268 161 -272 164
-1 1 7 46 18 101 10 55 19 101 19 102 0 3 72 -5 110 -12 14 -2 45 -7 70 -10
25 -4 88 -13 140 -21 177 -28 200 -29 201 -10 1 9 2 19 3 24 1 4 6 25 11 47 5
22 9 42 10 45 1 3 5 28 10 55 4 28 12 60 16 73 5 12 7 22 6 22 -122 20 -219
34 -371 57 -103 15 -190 32 -191 38 -1 5 -8 46 -15 90 -18 124 -63 243 -130
345 -20 31 -39 62 -42 70 -4 8 -27 44 -51 79 l-44 64 34 76 c19 42 39 85 44
96 33 73 109 327 124 415 3 19 8 42 10 50 32 120 42 526 16 670 -5 30 -12 71
-16 90 -31 177 -90 357 -165 505 -62 124 -55 120 -175 104 -112 -14 -140 -20
-255 -59 -259 -85 -539 -259 -825 -510 -68 -59 -347 -341 -404 -407 l-54 -63
-51 4 c-231 20 -345 22 -496 12 -52 -4 -125 -9 -162 -11 l-66 -4 -74 84 c-91
105 -309 321 -408 406 -405 347 -759 525 -1106 554 -43 4 -64 1 -72 -7z m1271
-1904 c111 -38 190 -151 190 -274 1 -158 -128 -290 -283 -290 -191 0 -333 179
-285 359 44 169 214 261 378 205z m1747 1 c67 -22 141 -91 170 -157 50 -114
21 -249 -71 -332 -80 -72 -189 -94 -292 -60 -71 23 -158 111 -178 180 -31 109
-8 211 66 292 73 82 197 113 305 77z m-696 -892 c-8 -18 -50 -102 -93 -186
-43 -83 -81 -162 -85 -174 -12 -38 56 -160 124 -221 88 -80 192 -116 308 -109
95 6 112 10 179 43 126 61 219 196 238 343 2 18 7 36 10 39 4 4 36 7 72 7 l65
1 -6 -71 c-13 -164 -110 -319 -261 -419 -180 -118 -423 -123 -615 -10 -67 39
-156 122 -185 172 -11 17 -22 32 -25 32 -3 0 -14 -14 -24 -31 -25 -42 -102
-119 -157 -155 -170 -115 -392 -131 -586 -43 -48 22 -141 95 -187 147 -54 61
-108 167 -123 242 -11 53 -19 130 -14 131 38 7 141 3 142 -5 8 -121 51 -219
134 -301 86 -86 194 -128 318 -124 122 3 224 52 317 153 29 30 90 142 90 164
0 7 -45 99 -100 206 -54 106 -97 195 -95 197 2 3 132 4 288 5 l285 0 -14 -33z"/>
</g>
</svg>
